<svg width="20" height="19" viewBox="0 0 20 19" fill="none" xmlns="http://www.w3.org/2000/svg">
<path d="M9.99901 14.1406C10.3763 14.1406 10.6822 13.8347 10.6822 13.4574C10.6822 13.0801 10.3763 12.7742 9.99901 12.7742C9.62168 12.7742 9.3158 13.0801 9.3158 13.4574C9.3158 13.8347 9.62168 14.1406 9.99901 14.1406Z" fill="#E4453A"/>
<path d="M9.99905 11.6851C9.86281 11.6851 9.73215 11.631 9.63581 11.5347C9.53947 11.4383 9.48535 11.3077 9.48535 11.1714V5.0071C9.48535 4.87086 9.53947 4.7402 9.63581 4.64387C9.73215 4.54753 9.86281 4.49341 9.99905 4.49341C10.1353 4.49341 10.2659 4.54753 10.3623 4.64387C10.4586 4.7402 10.5127 4.87086 10.5127 5.0071V11.1714C10.5127 11.3077 10.4586 11.4383 10.3623 11.5347C10.2659 11.631 10.1353 11.6851 9.99905 11.6851Z" fill="#E4453A"/>
<path d="M9.99903 17.5364C8.37345 17.5364 6.78436 17.0544 5.43273 16.1512C4.08111 15.2481 3.02764 13.9644 2.40555 12.4626C1.78347 10.9607 1.6207 9.30815 1.93784 7.7138C2.25498 6.11945 3.03777 4.65494 4.18724 3.50547C5.3367 2.35601 6.80121 1.57321 8.39556 1.25608C9.98992 0.93894 11.6425 1.10171 13.1444 1.72379C14.6462 2.34588 15.9299 3.39934 16.833 4.75097C17.7361 6.1026 18.2182 7.69168 18.2182 9.31727C18.2182 11.4971 17.3522 13.5877 15.8108 15.1291C14.2694 16.6705 12.1789 17.5364 9.99903 17.5364V17.5364ZM9.99903 2.12554C8.57664 2.12554 7.1862 2.54733 6.00352 3.33756C4.82085 4.1278 3.89906 5.251 3.35474 6.56512C2.81041 7.87923 2.66799 9.32525 2.94549 10.7203C3.22298 12.1154 3.90793 13.3968 4.91371 14.4026C5.91949 15.4084 7.20094 16.0933 8.596 16.3708C9.99106 16.6483 11.4371 16.5059 12.7512 15.9616C14.0653 15.4172 15.1885 14.4955 15.9787 13.3128C16.769 12.1301 17.1908 10.7397 17.1908 9.31727C17.1908 7.40991 16.4331 5.58066 15.0844 4.23195C13.7356 2.88324 11.9064 2.12554 9.99903 2.12554V2.12554Z" fill="#E4453A"/>
</svg>
