<svg width="34" height="33" viewBox="0 0 34 33" fill="none" xmlns="http://www.w3.org/2000/svg">
<g clip-path="url(#clip0)">
<g style="mix-blend-mode:multiply">
<path d="M8.748 3.436L8.748 12.364C8.748 12.94 8.652 13.468 8.46 13.948C8.28 14.416 8.01 14.818 7.65 15.154C7.29 15.478 6.852 15.736 6.336 15.928C5.832 16.108 5.256 16.198 4.608 16.198C3.984 16.198 3.432 16.114 2.952 15.946C2.484 15.778 2.076 15.538 1.728 15.226C1.392 14.914 1.116 14.542 0.9 14.11C0.684 13.678 0.534 13.198 0.45 12.67L3.006 12.166C3.21 13.258 3.732 13.804 4.572 13.804C4.968 13.804 5.304 13.678 5.58 13.426C5.868 13.174 6.012 12.778 6.012 12.238L6.012 5.632L2.196 5.632L2.196 3.436L8.748 3.436ZM13.4927 3.436L13.4927 11.14C13.4927 12.028 13.6667 12.694 14.0147 13.138C14.3627 13.57 14.9447 13.786 15.7607 13.786C16.5767 13.786 17.1587 13.57 17.5067 13.138C17.8547 12.694 18.0287 12.028 18.0287 11.14V3.436H20.6927V10.852C20.6927 11.776 20.6027 12.58 20.4227 13.264C20.2547 13.936 19.9727 14.494 19.5767 14.938C19.1807 15.37 18.6707 15.694 18.0467 15.91C17.4227 16.114 16.6607 16.216 15.7607 16.216C14.8607 16.216 14.0987 16.114 13.4747 15.91C12.8507 15.694 12.3407 15.37 11.9447 14.938C11.5487 14.494 11.2607 13.936 11.0807 13.264C10.9127 12.58 10.8287 11.776 10.8287 10.852L10.8287 3.436L13.4927 3.436ZM1.386 32L1.386 19.436H4.122L4.122 29.57H8.91V32H1.386ZM9.90492 32V29.822L11.5249 29.822L11.5249 21.614L9.90492 21.614V19.436L15.8809 19.436V21.614H14.2609L14.2609 29.822H15.8809V32H9.90492ZM25.3605 32L24.4605 29.012H20.2665L19.3665 32H16.5945L20.7345 19.436H24.1185L28.2045 32H25.3605ZM22.3905 21.92H22.3005L20.9145 26.69H23.7945L22.3905 21.92ZM31.1583 32.198C30.6183 32.198 30.2163 32.066 29.9523 31.802C29.7003 31.526 29.5743 31.178 29.5743 30.758V30.398C29.5743 29.978 29.7003 29.636 29.9523 29.372C30.2163 29.096 30.6183 28.958 31.1583 28.958C31.6983 28.958 32.0943 29.096 32.3463 29.372C32.6103 29.636 32.7423 29.978 32.7423 30.398V30.758C32.7423 31.178 32.6103 31.526 32.3463 31.802C32.0943 32.066 31.6983 32.198 31.1583 32.198Z" fill="black"/>
</g>
</g>
<defs>
<clipPath id="clip0">
<rect width="34" height="33" fill="white"/>
</clipPath>
</defs>
</svg>
