<svg width="240" height="210" viewBox="0 0 34 31" fill="none" xmlns="http://www.w3.org/2000/svg">
<g clip-path="url(#clip0)">
<g style="mix-blend-mode:multiply">
<path class="LogoMain" d="M8.748 2.436L8.748 11.364C8.748 11.94 8.652 12.468 8.46 12.948C8.28 13.416 8.01 13.818 7.65 14.154C7.29 14.478 6.852 14.736 6.336 14.928C5.832 15.108 5.256 15.198 4.608 15.198C3.984 15.198 3.432 15.114 2.952 14.946C2.484 14.778 2.076 14.538 1.728 14.226C1.392 13.914 1.116 13.542 0.9 13.11C0.684 12.678 0.534 12.198 0.45 11.67L3.006 11.166C3.21 12.258 3.732 12.804 4.572 12.804C4.968 12.804 5.304 12.678 5.58 12.426C5.868 12.174 6.012 11.778 6.012 11.238L6.012 4.632L2.196 4.632L2.196 2.436L8.748 2.436ZM13.4927 2.436L13.4927 10.14C13.4927 11.028 13.6667 11.694 14.0147 12.138C14.3627 12.57 14.9447 12.786 15.7607 12.786C16.5767 12.786 17.1587 12.57 17.5067 12.138C17.8547 11.694 18.0287 11.028 18.0287 10.14V2.436H20.6927V9.852C20.6927 10.776 20.6027 11.58 20.4227 12.264C20.2547 12.936 19.9727 13.494 19.5767 13.938C19.1807 14.37 18.6707 14.694 18.0467 14.91C17.4227 15.114 16.6607 15.216 15.7607 15.216C14.8607 15.216 14.0987 15.114 13.4747 14.91C12.8507 14.694 12.3407 14.37 11.9447 13.938C11.5487 13.494 11.2607 12.936 11.0807 12.264C10.9127 11.58 10.8287 10.776 10.8287 9.852L10.8287 2.436L13.4927 2.436ZM1.386 31L1.386 18.436H4.122L4.122 28.57H8.91V31H1.386ZM9.90492 31V28.822L11.5249 28.822L11.5249 20.614L9.90492 20.614V18.436L15.8809 18.436V20.614H14.2609L14.2609 28.822H15.8809V31L9.90492 31ZM25.3605 31L24.4605 28.012H20.2665L19.3665 31H16.5945L20.7345 18.436H24.1185L28.2045 31H25.3605ZM22.3905 20.92H22.3005L20.9145 25.69H23.7945L22.3905 20.92ZM31.1583 31.198C30.6183 31.198 30.2163 31.066 29.9523 30.802C29.7003 30.526 29.5743 30.178 29.5743 29.758V29.398C29.5743 28.978 29.7003 28.636 29.9523 28.372C30.2163 28.096 30.6183 27.958 31.1583 27.958C31.6983 27.958 32.0943 28.096 32.3463 28.372C32.6103 28.636 32.7423 28.978 32.7423 29.398V29.758C32.7423 30.178 32.6103 30.526 32.3463 30.802C32.0943 31.066 31.6983 31.198 31.1583 31.198Z" fill="black"/>
</g>
</g>
<defs>
<clipPath id="clip0">
<rect width="240" height="210" fill="blue"/>
</clipPath>
</defs>
</svg>
